<?xml version="1.0" standalone="no"?>
<!DOCTYPE svg PUBLIC "-//W3C//DTD SVG 20010904//EN"
 "http://www.w3.org/TR/2001/REC-SVG-20010904/DTD/svg10.dtd">
<svg version="1.0" xmlns="http://www.w3.org/2000/svg"
 width="260.000000pt" height="280.000000pt" viewBox="0 0 260.000000 280.000000"
 preserveAspectRatio="xMidYMid meet">

<g transform="translate(0.000000,280.000000) scale(0.100000,-0.100000)"
fill="#111111" stroke="none">
<path d="M1581 1819 c-36 -46 -49 -69 -37 -69 2 0 21 15 42 34 24 21 38 43 39
60 0 14 0 26 -1 26 -1 0 -21 -23 -43 -51z"/>
<path d="M1506 1835 c-9 -33 -1 -44 12 -18 6 11 7 25 3 32 -6 9 -10 5 -15 -14z"/>
<path d="M1526 1795 c-22 -33 -41 -53 -48 -49 -7 4 -8 3 -4 -4 4 -7 0 -22 -8
-34 l-16 -22 0 22 c0 13 -3 21 -7 19 -5 -3 -9 11 -11 31 -3 39 -32 83 -32 49
0 -22 -16 -22 -30 1 -8 13 -9 11 -4 -12 l7 -29 -30 32 c-17 17 -34 31 -39 31
-4 0 7 -15 25 -34 18 -19 39 -32 46 -30 7 3 16 0 21 -7 4 -8 3 -10 -4 -5 -21
13 -13 -7 15 -36 14 -15 24 -30 21 -33 -6 -6 -64 25 -113 61 -28 20 -130 41
-120 23 3 -4 29 -17 58 -27 105 -40 188 -82 182 -92 -9 -14 -31 -12 -48 5 -21
20 -208 106 -221 101 -6 -2 0 -8 14 -14 14 -5 41 -16 60 -24 l35 -15 -62 3
c-35 2 -114 -1 -175 -7 -62 -6 -141 -13 -176 -16 -70 -5 -92 -24 -92 -78 0
-22 -11 -44 -35 -70 -19 -22 -33 -41 -31 -43 2 -1 31 15 65 36 170 110 422
152 555 93 l47 -20 62 32 c34 18 63 35 65 40 6 11 36 8 74 -7 32 -14 40 -12
124 15 54 17 96 38 107 51 26 31 10 33 -75 8 -124 -36 -183 -49 -220 -47 -33
2 -35 4 -25 22 5 11 27 41 49 68 33 43 46 67 34 67 -2 0 -20 -25 -40 -55z"/>
<path d="M1450 1788 c0 -38 3 -49 10 -38 13 20 13 77 0 85 -6 4 -10 -14 -10
-47z"/>
<path d="M1665 1799 c-22 -16 -47 -36 -56 -43 -9 -8 -27 -17 -39 -21 -12 -4
-19 -9 -17 -12 3 -2 33 3 66 13 67 18 114 54 105 78 -8 21 -12 20 -59 -15z"/>
<path d="M1770 1660 c-156 -43 -174 -49 -157 -49 10 -1 15 -5 12 -11 -3 -5 0
-10 7 -10 7 0 19 -9 26 -21 7 -12 16 -19 18 -16 3 3 0 14 -7 26 -7 11 -11 22
-9 24 3 3 30 1 60 -3 94 -12 126 -3 149 41 l21 39 -28 -1 c-15 0 -56 -9 -92
-19z"/>
<path d="M1530 1656 c0 -2 7 -7 16 -10 8 -3 12 -2 9 4 -6 10 -25 14 -25 6z"/>
<path d="M1233 1603 c9 -2 25 -2 35 0 9 3 1 5 -18 5 -19 0 -27 -2 -17 -5z"/>
<path d="M1160 1590 c-11 -8 -7 -9 15 -4 37 8 45 14 19 14 -10 0 -26 -5 -34
-10z"/>
<path d="M1074 1544 c-18 -14 -18 -15 4 -4 12 6 22 13 22 15 0 8 -5 6 -26 -11z"/>
<path d="M999 1493 c-13 -16 -12 -17 4 -4 9 7 17 15 17 17 0 8 -8 3 -21 -13z"/>
<path d="M778 1453 c-46 -48 -108 -138 -108 -157 0 -6 13 12 29 40 16 28 53
76 81 107 63 69 62 75 -2 10z"/>
<path d="M944 1448 l-19 -23 23 19 c21 18 27 26 19 26 -2 0 -12 -10 -23 -22z"/>
<path d="M1495 1395 c-38 -7 -95 -23 -125 -35 -93 -36 -281 -122 -276 -127 2
-2 26 7 53 20 26 13 98 42 158 63 100 35 119 38 216 39 98 0 108 -2 146 -27
22 -14 48 -43 59 -65 17 -35 19 -36 22 -13 7 46 -17 99 -56 124 -48 32 -110
38 -197 21z"/>
<path d="M696 1278 c-9 -12 -16 -29 -16 -38 0 -8 9 0 21 19 23 38 19 54 -5 19z"/>
<path d="M1308 1253 c6 -2 18 -2 25 0 6 3 1 5 -13 5 -14 0 -19 -2 -12 -5z"/>
<path d="M1548 1253 c7 -3 16 -2 19 1 4 3 -2 6 -13 5 -11 0 -14 -3 -6 -6z"/>
<path d="M1500 1196 c68 -20 115 -42 165 -76 49 -34 58 -33 23 1 -33 31 -135
76 -188 83 l-45 6 45 -14z"/>
<path d="M1190 1194 c210 -40 383 -97 442 -144 26 -22 43 -29 50 -22 18 18
-95 86 -187 114 -69 20 -208 47 -267 52 -35 3 -52 3 -38 0z"/>
<path d="M1150 1160 c8 -5 22 -9 30 -9 10 0 8 3 -5 9 -27 12 -43 12 -25 0z"/>
<path d="M1208 1143 c7 -3 16 -2 19 1 4 3 -2 6 -13 5 -11 0 -14 -3 -6 -6z"/>
<path d="M1083 90 c-1 -25 1 -37 4 -27 5 18 5 18 18 0 12 -16 13 -15 8 10 -3
15 -9 25 -13 22 -5 -3 -11 5 -13 17 -2 13 -4 3 -4 -22z"/>
<path d="M1456 121 c-4 -5 3 -7 14 -4 26 7 25 -7 -1 -41 l-20 -26 28 1 c16 1
21 3 11 6 -16 4 -16 6 -2 28 9 13 13 29 9 35 -8 12 -32 13 -39 1z"/>
<path d="M1520 110 c0 -11 7 -20 15 -20 21 0 19 -28 -2 -33 -17 -4 -17 -5 0
-6 25 -1 34 29 14 44 -22 16 -21 22 1 28 13 4 11 5 -5 6 -17 1 -23 -5 -23 -19z"/>
<path d="M1592 105 c-22 -28 -23 -30 -5 -34 10 -2 21 -8 24 -13 10 -15 16 14
10 47 l-6 29 -23 -29z m14 -22 c-10 -10 -19 5 -10 18 6 11 8 11 12 0 2 -7 1
-15 -2 -18z"/>
<path d="M1650 121 c0 -5 9 -7 20 -4 11 3 20 7 20 9 0 2 -9 4 -20 4 -11 0 -20
-4 -20 -9z"/>
<path d="M1720 111 c-13 -25 -13 -29 3 -27 6 0 12 -3 12 -9 0 -5 -6 -9 -12 -9
-7 1 -13 -2 -13 -7 0 -15 37 -10 43 5 3 8 0 20 -8 26 -8 6 -11 18 -8 26 8 21
-5 17 -17 -5z"/>
<path d="M1774 115 c-4 -9 -4 -19 0 -22 3 -4 6 1 6 10 0 10 7 17 15 17 10 0
15 -10 15 -30 0 -29 -22 -42 -33 -20 -3 6 -4 5 -3 -2 2 -7 11 -13 22 -13 26 0
28 68 1 73 -9 2 -20 -4 -23 -13z"/>
<path d="M1834 106 c-3 -14 -3 -33 0 -42 8 -20 40 -14 42 9 1 12 1 13 -3 2 -7
-25 -33 -18 -33 9 0 30 18 44 32 25 8 -12 9 -11 5 1 -7 26 -36 24 -43 -4z"/>
<path d="M1907 123 c-13 -13 -7 -31 13 -36 11 -3 20 -1 20 4 0 5 -7 9 -15 9
-21 0 -19 18 3 23 14 4 14 5 1 6 -9 0 -19 -2 -22 -6z"/>
<path d="M1975 121 c-3 -5 -1 -12 5 -16 5 -3 10 1 10 9 0 18 -6 21 -15 7z"/>
<path d="M2035 121 c-3 -6 0 -9 8 -5 10 3 14 -4 15 -27 1 -26 -2 -30 -19 -26
-10 3 -17 1 -13 -4 3 -5 14 -9 25 -9 16 0 19 6 17 37 -3 36 -20 54 -33 34z"/>
<path d="M701 88 c-1 -30 3 -38 17 -38 11 0 13 3 5 8 -6 4 -13 21 -16 37 -4
27 -4 27 -6 -7z"/>
<path d="M740 86 c0 -28 4 -36 18 -36 13 0 14 2 3 9 -8 5 -12 18 -8 30 3 12 1
24 -4 27 -5 3 -9 -11 -9 -30z"/>
<path d="M930 85 c0 -19 4 -35 8 -35 4 0 6 16 4 35 -2 19 -6 35 -8 35 -2 0 -4
-16 -4 -35z"/>
<path d="M535 100 c-4 -6 -2 -17 5 -24 8 -11 8 -15 -2 -19 -8 -4 -7 -6 5 -6 9
-1 17 6 17 14 0 8 -5 15 -11 15 -6 0 -9 7 -5 15 6 17 0 20 -9 5z"/>
<path d="M576 95 c-3 -8 -1 -15 4 -15 6 0 10 7 10 15 0 8 -2 15 -4 15 -2 0 -6
-7 -10 -15z"/>
<path d="M806 97 c3 -10 9 -15 12 -12 3 3 0 11 -7 18 -10 9 -11 8 -5 -6z"/>
<path d="M1247 86 c4 -19 1 -26 -10 -26 -9 0 -17 8 -20 18 -3 13 -4 12 -3 -3
1 -13 8 -20 21 -20 22 0 33 31 17 47 -6 6 -8 0 -5 -16z"/>
<path d="M612 75 c0 -16 2 -22 5 -12 2 9 2 23 0 30 -3 6 -5 -1 -5 -18z"/>
<path d="M641 78 c-1 -22 4 -28 19 -28 15 0 20 6 19 28 -2 23 -2 24 -6 5 -2
-13 -8 -23 -13 -23 -5 0 -11 10 -13 23 -4 19 -4 18 -6 -5z"/>
<path d="M784 75 c1 -12 9 -21 21 -22 14 -1 15 0 3 3 -9 3 -19 13 -21 22 -3
12 -4 11 -3 -3z"/>
<path d="M884 81 c13 -15 14 -20 4 -24 -9 -4 -9 -6 -1 -6 20 -2 25 18 9 34
-21 22 -32 18 -12 -4z"/>
<path d="M963 84 c-3 -8 -1 -20 5 -26 16 -16 42 -1 41 24 l-2 23 -4 -22 c-2
-13 -11 -23 -20 -23 -10 0 -14 6 -10 20 6 24 -1 27 -10 4z"/>
<path d="M1026 91 c-10 -15 5 -41 22 -41 13 0 13 2 -3 13 -10 8 -15 19 -11 25
4 7 5 12 2 12 -3 0 -7 -4 -10 -9z"/>
<path d="M1164 75 c1 -12 9 -21 21 -22 14 -1 15 0 3 3 -9 3 -19 13 -21 22 -3
12 -4 11 -3 -3z"/>
<path d="M1308 75 c6 -32 12 -32 12 0 0 14 -4 25 -9 25 -4 0 -6 -11 -3 -25z"/>
<path d="M1342 75 c0 -16 2 -22 5 -12 2 9 2 23 0 30 -3 6 -5 -1 -5 -18z"/>
<path d="M1663 94 c9 -3 17 -12 17 -19 0 -8 -8 -15 -17 -18 -14 -3 -13 -4 2
-3 27 1 27 40 0 43 -16 1 -16 1 -2 -3z"/>
<path d="M1978 72 c-5 -18 -2 -22 15 -22 13 0 17 3 11 8 -6 4 -13 14 -16 22
-3 10 -6 8 -10 -8z"/>
<path d="M1915 60 c-16 -7 -17 -9 -3 -9 9 -1 20 4 23 9 7 11 7 11 -20 0z"/>
</g>
</svg>
